# xmcd CD database file
#
# Track frame offsets:
#	150
#	23972
#	78910
#	97027
#	117072
#	137250
#	160872
#	175067
#
# Disc length: 3158 seconds
#
# Revision: 2
# Processed by: cddbd v1.5.2PL0 Copyright (c) Steve Scherf et al.
# Submitted via: CDex 1.51
#
DISCID=550c5408
DTITLE=Donny Hathaway - Live
DYEAR=1971
DGENRE=Soul
TTITLE0=What's Goin' On
TTITLE1=The Ghetto
TTITLE2=Hey Girl
TTITLE3=You've Got A Friend
TTITLE4=Little Ghetto Boy
TTITLE5=We're Still Friends
TTITLE6=Jealous Guy
TTITLE7=Voices Inside (Everything Is Everything)
EXTD=YEAR: 1971
EXTT0=
EXTT1=
EXTT2=
EXTT3=
EXTT4=
EXTT5=
EXTT6=
EXTT7=
PLAYORDER=
